<svg width="26" height="29" viewBox="0 0 26 29" fill="none" xmlns="http://www.w3.org/2000/svg">
<g filter="url(#filter0_dd_1_1459)">
<path d="M16.7331 4.67337C16.928 4.29095 17.3981 4.13609 17.7623 4.36319C19.2476 5.28939 20.4358 6.63223 21.1733 8.23205C22.0196 10.0679 22.2233 12.1353 21.7513 14.101C21.2794 16.0667 20.1594 17.8163 18.5719 19.0678C16.9843 20.3194 15.0216 21 13 21C10.9784 21 9.01575 20.3194 7.42817 19.0679C5.8406 17.8163 4.72061 16.0667 4.24868 14.101C3.77675 12.1353 3.98036 10.0679 4.82671 8.23207C5.56423 6.63225 6.7524 5.2894 8.2377 4.3632C8.60189 4.1361 9.07203 4.29096 9.26689 4.67338C9.46174 5.0558 9.30694 5.52046 8.9469 5.75409C7.77094 6.51718 6.82951 7.60015 6.23822 8.88278C5.53803 10.4016 5.36958 12.1119 5.76001 13.7382C6.15044 15.3644 7.07701 16.8119 8.39041 17.8473C9.70382 18.8827 11.3276 19.4457 13 19.4457C14.6725 19.4457 16.2962 18.8826 17.6096 17.8472C18.923 16.8118 19.8496 15.3644 20.24 13.7382C20.6304 12.1119 20.462 10.4016 19.7618 8.88277C19.1705 7.60014 18.2291 6.51717 17.0531 5.75408C16.6931 5.52045 16.5383 5.05579 16.7331 4.67337Z" fill=""/>
<path fill-rule="evenodd" clip-rule="evenodd" d="M13 2.25C13.4142 2.25 13.75 2.58579 13.75 3V8C13.75 8.41421 13.4142 8.75 13 8.75C12.5858 8.75 12.25 8.41421 12.25 8V3C12.25 2.58579 12.5858 2.25 13 2.25Z" fill=""/>
</g>
<defs>
<filter id="filter0_dd_1_1459" x="-3" y="0" width="32" height="32" filterUnits="userSpaceOnUse" color-interpolation-filters="sRGB">
<feFlood flood-opacity="0" result="BackgroundImageFix"/>
<feColorMatrix in="SourceAlpha" type="matrix" values="0 0 0 0 0 0 0 0 0 0 0 0 0 0 0 0 0 0 127 0" result="hardAlpha"/>
<feOffset dy="4"/>
<feGaussianBlur stdDeviation="2"/>
<feComposite in2="hardAlpha" operator="out"/>
<feColorMatrix type="matrix" values="0 0 0 0 0 0 0 0 0 0 0 0 0 0 0 0 0 0 0.25 0"/>
<feBlend mode="normal" in2="BackgroundImageFix" result="effect1_dropShadow_1_1459"/>
<feColorMatrix in="SourceAlpha" type="matrix" values="0 0 0 0 0 0 0 0 0 0 0 0 0 0 0 0 0 0 127 0" result="hardAlpha"/>
<feOffset dy="4"/>
<feGaussianBlur stdDeviation="2"/>
<feComposite in2="hardAlpha" operator="out"/>
<feColorMatrix type="matrix" values="0 0 0 0 0 0 0 0 0 0 0 0 0 0 0 0 0 0 0.25 0"/>
<feBlend mode="normal" in2="effect1_dropShadow_1_1459" result="effect2_dropShadow_1_1459"/>
<feBlend mode="normal" in="SourceGraphic" in2="effect2_dropShadow_1_1459" result="shape"/>
</filter>
</defs>
</svg>
