<svg width="18" height="8" viewBox="0 0 18 8" fill="none" xmlns="http://www.w3.org/2000/svg">
<path fill-rule="evenodd" clip-rule="evenodd" d="M3.32501 4.75H1C0.585786 4.75 0.25 4.41421 0.25 4C0.25 3.58579 0.585786 3.25 1 3.25H3.32501C3.67247 1.53832 5.18578 0.25 7 0.25C8.81422 0.25 10.3275 1.53832 10.675 3.25H17C17.4142 3.25 17.75 3.58579 17.75 4C17.75 4.41421 17.4142 4.75 17 4.75H10.675C10.3275 6.46168 8.81422 7.75 7 7.75C5.18578 7.75 3.67247 6.46168 3.32501 4.75ZM4.75 4C4.75 2.75736 5.75736 1.75 7 1.75C8.24264 1.75 9.25 2.75736 9.25 4C9.25 5.24264 8.24264 6.25 7 6.25C5.75736 6.25 4.75 5.24264 4.75 4Z" fill="white"/>
</svg>
