<svg width="18" height="8" viewBox="0 0 18 8" fill="none" xmlns="http://www.w3.org/2000/svg">
<path fill-rule="evenodd" clip-rule="evenodd" d="M7.32501 4.75H1C0.585786 4.75 0.25 4.41421 0.25 4C0.25 3.58579 0.585786 3.25 1 3.25H7.32501C7.67247 1.53832 9.18578 0.25 11 0.25C12.8142 0.25 14.3275 1.53832 14.675 3.25H17C17.4142 3.25 17.75 3.58579 17.75 4C17.75 4.41421 17.4142 4.75 17 4.75H14.675C14.3275 6.46168 12.8142 7.75 11 7.75C9.18578 7.75 7.67247 6.46168 7.32501 4.75ZM8.75 4C8.75 2.75736 9.75736 1.75 11 1.75C12.2426 1.75 13.25 2.75736 13.25 4C13.25 5.24264 12.2426 6.25 11 6.25C9.75736 6.25 8.75 5.24264 8.75 4Z" fill="white"/>
</svg>
